<svg xmlns="http://www.w3.org/2000/svg" xmlns:xlink="http://www.w3.org/1999/xlink" width="1536" height="1536" viewBox="0 0 1536 1536">
  <defs>
    <linearGradient id="logo-nc-gemichelst-white-new-transparent-square-c" x1="72.072%" x2="50.072%" y1="45.573%" y2="60.247%">
      <stop offset="0%" stop-opacity=".4"/>
      <stop offset="100%" stop-color="#FFF" stop-opacity=".4"/>
    </linearGradient>
    <path id="logo-nc-gemichelst-white-new-transparent-square-b" d="M698.349183,0 C910.647335,0 1082.44123,155.766545 1082.44123,348.258535 L1082.44123,379.918402 L1187.19361,379.918402 C1303.11958,379.918402 1458,459.588617 1458,564.699375 C1458,669.810133 1452.41571,661.862879 1336.48974,661.862879 L279.339673,661.862879 C125.004504,661.862879 0,646.49448 0,506.557869 C0,366.621258 125.004504,253.278935 279.339673,253.278935 L328.922465,253.278935 C375.013511,107.01035 522.365189,0 698.349183,0 Z"/>
    <filter id="logo-nc-gemichelst-white-new-transparent-square-a" width="105.6%" height="112.4%" x="-2.8%" y="-7.3%" filterUnits="objectBoundingBox">
      <feOffset dy="-7" in="SourceAlpha" result="shadowOffsetOuter1"/>
      <feGaussianBlur in="shadowOffsetOuter1" result="shadowBlurOuter1" stdDeviation="12.5"/>
      <feComposite in="shadowBlurOuter1" in2="SourceAlpha" operator="out" result="shadowBlurOuter1"/>
      <feColorMatrix in="shadowBlurOuter1" values="0 0 0 0 0.981459466   0 0 0 0 0.981459466   0 0 0 0 0.981459466  0 0 0 1 0"/>
    </filter>
    <filter id="logo-nc-gemichelst-white-new-transparent-square-d" width="104.3%" height="109.5%" x="-2.2%" y="-5.8%" filterUnits="objectBoundingBox">
      <feMorphology in="SourceAlpha" radius="3" result="shadowSpreadInner1"/>
      <feOffset dx="10" dy="10" in="shadowSpreadInner1" result="shadowOffsetInner1"/>
      <feComposite in="shadowOffsetInner1" in2="SourceAlpha" k2="-1" k3="1" operator="arithmetic" result="shadowInnerInner1"/>
      <feColorMatrix in="shadowInnerInner1" values="0 0 0 0 0.900985054   0 0 0 0 0.900985054   0 0 0 0 0.900985054  0 0 0 1 0"/>
    </filter>
    <path id="logo-nc-gemichelst-white-new-transparent-square-f" d="M1416.24223,4 L1473.32475,4 L1473.32475,60.578125 L1502,60.578125 L1502,89 L1473.32475,89 L1473.32475,202.421875 C1473.32475,211.541712 1476.36197,218.514299 1482.43651,223.339844 C1488.51105,228.165389 1494.13885,230.578125 1499.32007,230.578125 L1502,230.578125 L1502,259 L1473.32475,259 C1457.60241,259 1444.15823,253.444066 1432.99179,242.332031 C1421.82536,231.219997 1416.24223,217.916744 1416.24223,202.421875 C1416.08074,126.807292 1416,89 1416,89 C1416,89 1416.08074,79.5260417 1416.24223,60.578125 L1416.24223,4 Z M180,59 L180,259.926896 C180,275.527723 180,310.835746 180,328.288635 C180,345.741523 130.119979,346 114.63796,346 L33.6473868,346 C21.1821564,346 15.5660016,346 13.4105226,339.088817 C9.2414759,325.71873 2.76493119,312.790819 0,288.707589 L28.7266082,288.707589 C51.8502158,288.707589 39.55493,288.707589 57.1847435,288.707589 C74.8145569,288.707589 69.9942384,288.707589 85.9113517,288.707589 C101.828465,288.707589 114.63796,290.86789 114.63796,283.067476 L114.63796,231.146202 C112.400674,250.333427 102.825234,259.926896 85.9113517,259.926896 L57.1847435,259.926896 C41.5237417,259.926896 28.0778547,254.300819 16.8466791,243.048498 C5.61550355,231.796177 0,218.324975 0,202.634488 L0,116.561386 C0,100.691579 5.63787608,87.1307182 16.9137974,75.8783972 C28.1897187,64.6260761 41.6132331,59 57.1847435,59 L180,59 Z M121,88 L92.5,88 C84.6868768,88 77.9836728,90.8367446 72.3901869,96.5103189 C66.796701,102.183893 64,108.983075 64,116.908068 L64,203.362101 C64,211.106981 66.774505,217.816107 72.3235981,223.489681 C77.8726913,229.163255 84.5980913,232 92.5,232 C100.401909,232 107.127309,229.163255 112.676402,223.489681 C118.225495,217.816107 121,211.106981 121,203.362101 L121,88 Z M352,173.323963 L237.24375,173.323963 L237.24375,201.971888 C237.24375,209.647071 240.043201,216.295822 245.642188,221.91834 C251.241174,227.540858 258.027043,230.352075 266,230.352075 L294.75625,230.352075 C313.748012,230.352075 323.24375,220.892107 323.24375,201.971888 L352,201.971888 C347.520811,239.990819 328.439752,259 294.75625,259 L237.24375,259 C221.566588,259 221.9175,259 200.95875,259 C180,259 182.598382,259 182.598382,251.356239 L180,116.29585 C180,100.499252 185.643694,87.0009485 196.93125,75.8005355 C208.218806,64.6001225 221.656172,59 237.24375,59 L294.75625,59 C310.433412,59 323.893173,64.644745 335.135938,75.9344043 C346.378702,87.2240636 352,100.677744 352,116.29585 L352,173.323963 Z M238,143 L295,143 L295,114.633803 C295,106.783998 292.181103,100.049324 286.543224,94.4295775 C280.905346,88.8098311 274.224338,86 266.5,86 C258.686877,86 251.983673,88.8098311 246.390187,94.4295775 C240.796701,100.049324 238,106.783998 238,114.633803 L238,143 Z M527.146204,259 L469.853796,259 L469.853796,116.29585 C469.853796,108.442174 467.007136,101.704178 461.31373,96.08166 C455.620325,90.4591419 448.873516,87.647925 441.073102,87.647925 C433.183028,87.647925 426.413805,90.4591419 420.76523,96.08166 C415.116654,101.704178 412.292409,108.442174 412.292409,116.29585 L412.292409,259 L355,259 L355,59 L412.292409,59 L412.292409,87.647925 C413.457988,78.0093226 416.439136,70.8251017 421.235942,66.0950469 C426.032748,61.364992 432.645069,59 441.073102,59 L469.853796,59 C489.31,59 503.655374,65.737996 512.890347,79.2141901 C517.373343,72.4314699 523.201151,67.3668173 530.373946,64.0200803 C537.54674,60.6733434 546.064306,59 555.926898,59 L584.438613,59 C600.129101,59 613.645132,64.6001225 624.987113,75.8005355 C636.329095,87.0009485 642,100.499252 642,116.29585 L642,259 L584.438613,259 L584.438613,116.29585 C584.438613,108.53142 581.614368,101.815736 575.965792,96.1485944 C570.317216,90.4814531 563.637652,87.647925 555.926898,87.647925 C548.036824,87.647925 541.267601,90.4591419 535.619025,96.08166 C529.97045,101.704178 527.146204,108.442174 527.146204,116.29585 L527.146204,259 Z M1144.75625,59 C1160.43341,59 1173.89317,64.644745 1185.13594,75.9344043 C1196.3787,87.2240636 1202,100.677744 1202,116.29585 L1202,173.323963 L1087.24375,173.323963 L1087.24375,201.971888 C1087.24375,209.647071 1090.0432,216.295822 1095.64219,221.91834 C1101.24117,227.540858 1108.02704,230.352075 1116,230.352075 L1144.75625,230.352075 C1163.74801,230.352075 1173.24375,220.892107 1173.24375,201.971888 L1202,201.971888 C1197.52081,239.990819 1178.43975,259 1144.75625,259 L1050.95875,259 L1050.95875,259 C1030,259 1032.59838,259 1032.59838,251.356239 L1030,116.29585 C1030,100.499252 1035.64369,87.0009485 1046.93125,75.8005355 C1058.21881,64.6001225 1071.65617,59 1087.24375,59 L1144.75625,59 Z M706,0 L706,29 L649,29 L649,0 L706,0 Z M649,259 L649,59 L706,59 L706,259 L649,259 Z M852,116.296211 L823.362101,116.296211 C812.351158,116.296211 811.473912,116.638248 794.454034,116.402691 C786.760474,116.296211 780.467415,116.296211 765.545966,116.296211 L765.545966,201.972032 C772.311546,201.972032 774.669448,201.972032 776.965109,201.972032 C779.26077,201.972032 798.725547,201.972032 823.362101,201.972032 L852,201.972032 C850.728782,222.612969 851.563786,239.968876 851.563786,253.150813 C851.563786,257.452314 851.563786,259 851.563786,259 C851.563786,259 829.53986,259 820.689431,259 C796.674302,259 778.293147,259 765.545966,259 C749.786038,259 736.255216,253.399892 724.953096,242.199507 C713.650975,230.999122 708,217.590098 708,201.972032 L708,116.296211 C708,100.499653 713.673489,87.0013836 725.020638,75.800999 C736.367787,64.6006143 749.876094,59 765.545966,59 L820.689431,59 C830.608026,59 843.651141,59 848.404102,59 C853.157063,59 851.403966,58.8507883 851.563786,73.9692424 C851.673734,84.3699865 850.925346,97.304056 852,116.296211 Z M855,259 L855,0 L912.24375,0 L912.24375,86.3333333 C913.408339,76.6207848 916.386955,69.3814474 921.179688,64.6151042 C925.97242,59.8487609 932.579125,57.465625 941,57.465625 L969.75625,57.465625 C985.433412,57.465625 998.893173,63.1536758 1010.13594,74.5299479 C1021.3787,85.9062201 1027,99.4631158 1027,115.201042 L1027,259 L969.75625,259 L969.75625,115.201042 C969.75625,107.287113 966.912008,100.497424 961.223437,94.8317708 C955.534867,89.1661175 948.793789,86.3333333 941,86.3333333 C933.116627,86.3333333 926.353153,89.1661175 920.709375,94.8317708 C915.065597,100.497424 912.24375,107.287113 912.24375,115.201042 L912.24375,259 L855,259 Z M1089,143 L1146,143 L1146,114.633803 C1146,106.783998 1143.1811,100.049324 1137.54322,94.4295775 C1131.90535,88.8098311 1125.22434,86 1117.5,86 C1109.68688,86 1102.98367,88.8098311 1097.39019,94.4295775 C1091.7967,100.049324 1089,106.783998 1089,114.633803 L1089,143 Z M1207,259 L1207,0 L1264,0 L1264,259 L1207,259 Z M1412,116.29585 L1383.3621,116.29585 C1380.84051,97.1971379 1371.74492,87.647925 1356.07505,87.647925 C1345.89864,87.647925 1338.24393,89.6336258 1333.11069,93.605087 C1327.97746,97.5765482 1325.41088,103.489028 1325.41088,111.342704 C1325.41088,119.553365 1339.41449,131.065968 1367.42214,145.880857 C1390.20649,158.018356 1403.33207,168.080728 1406.79925,176.068273 C1410.26643,184.055819 1412,192.556403 1412,201.570281 C1412,217.456126 1406.34902,230.999052 1395.0469,242.199465 C1383.74478,253.399878 1370.21396,259 1354.45403,259 L1325.54597,259 C1287.1818,259 1268,239.990819 1268,201.971888 L1296.90807,201.971888 C1299.15949,220.981353 1308.16502,230.485944 1323.92495,230.485944 C1334.10136,230.485944 1341.75607,228.477932 1346.88931,224.461847 C1352.02254,220.445763 1354.58912,214.510972 1354.58912,206.657296 C1354.58912,198.625127 1340.63053,187.112525 1312.71295,172.119143 L1311.35213,171.398658 C1289.31559,159.670091 1276.59859,149.870187 1273.20075,141.998661 C1269.73357,133.966493 1268,125.48822 1268,116.563588 C1268,100.588497 1273.67349,87.0009485 1285.02064,75.8005355 C1296.36779,64.6001225 1309.87609,59 1325.54597,59 L1354.45403,59 C1390.47673,59 1409.65852,78.0984257 1412,116.29585 Z"/>
    <filter id="logo-nc-gemichelst-white-new-transparent-square-e" width="106.2%" height="126.9%" x="-3.1%" y="-15.5%" filterUnits="objectBoundingBox">
      <feMorphology in="SourceAlpha" operator="dilate" radius="5.5" result="shadowSpreadOuter1"/>
      <feOffset dy="-7" in="shadowSpreadOuter1" result="shadowOffsetOuter1"/>
      <feGaussianBlur in="shadowOffsetOuter1" result="shadowBlurOuter1" stdDeviation="12.5"/>
      <feComposite in="shadowBlurOuter1" in2="SourceAlpha" operator="out" result="shadowBlurOuter1"/>
      <feColorMatrix in="shadowBlurOuter1" values="0 0 0 0 0   0 0 0 0 0   0 0 0 0 0  0 0 0 0.5 0"/>
    </filter>
    <filter id="logo-nc-gemichelst-white-new-transparent-square-g" width="105%" height="121.4%" x="-2.5%" y="-12.7%" filterUnits="objectBoundingBox">
      <feMorphology in="SourceAlpha" radius="3" result="shadowSpreadInner1"/>
      <feOffset dx="10" dy="10" in="shadowSpreadInner1" result="shadowOffsetInner1"/>
      <feComposite in="shadowOffsetInner1" in2="SourceAlpha" k2="-1" k3="1" operator="arithmetic" result="shadowInnerInner1"/>
      <feColorMatrix in="shadowInnerInner1" values="0 0 0 0 1   0 0 0 0 1   0 0 0 0 1  0 0 0 1 0"/>
    </filter>
  </defs>
  <g fill="none" fill-rule="evenodd">
    <g fill-rule="nonzero" transform="translate(39 394)">
      <use fill="#000" filter="url(#logo-nc-gemichelst-white-new-transparent-square-a)" xlink:href="#logo-nc-gemichelst-white-new-transparent-square-b"/>
      <use fill="url(#logo-nc-gemichelst-white-new-transparent-square-c)" xlink:href="#logo-nc-gemichelst-white-new-transparent-square-b" style="mix-blend-mode:difference"/>
      <use fill="#000" filter="url(#logo-nc-gemichelst-white-new-transparent-square-d)" xlink:href="#logo-nc-gemichelst-white-new-transparent-square-b"/>
      <path stroke="#FFF" stroke-linejoin="square" stroke-width="11" d="M698.349183,5.5 C527.78349,5.5 380.385186,108.263641 334.168189,254.931927 L332.955949,258.778935 L279.339673,258.778935 C127.928431,258.778935 5.5,369.785517 5.5,506.557869 C5.5,570.365884 31.7449222,609.590969 83.9329658,631.619508 C107.344644,641.501562 136.0704,647.997197 171.176121,651.807165 C201.23499,655.069406 235.156839,656.362879 279.339673,656.362879 L1336.48974,656.362879 C1342.92068,656.362879 1348.44139,656.382744 1357.96072,656.431512 C1391.33643,656.602495 1401.76096,656.45385 1413.16616,655.283798 C1426.51255,653.914601 1434.65202,651.153033 1439.93556,646.282234 C1445.25991,641.373822 1448.47616,633.56177 1450.30504,620.622003 C1451.98979,608.702058 1452.5,593.702836 1452.5,564.699375 C1452.5,517.636638 1419.3432,472.46299 1363.16671,437.564235 C1310.95968,405.131441 1244.2745,385.418402 1187.19361,385.418402 L1076.94123,385.418402 L1076.94123,348.258535 C1076.94123,158.930804 907.723408,5.5 698.349183,5.5 Z"/>
    </g>
    <g fill-rule="nonzero" transform="translate(17 796)">
      <use fill="#000" filter="url(#logo-nc-gemichelst-white-new-transparent-square-e)" xlink:href="#logo-nc-gemichelst-white-new-transparent-square-f"/>
      <use fill="#FFF" xlink:href="#logo-nc-gemichelst-white-new-transparent-square-f"/>
      <use fill="#000" filter="url(#logo-nc-gemichelst-white-new-transparent-square-g)" xlink:href="#logo-nc-gemichelst-white-new-transparent-square-f"/>
      <use stroke="#000" stroke-width="11" xlink:href="#logo-nc-gemichelst-white-new-transparent-square-f"/>
    </g>
  </g>
</svg>
